<svg version="1.1" id="Layer_1" xmlns="http://www.w3.org/2000/svg" xmlns:xlink="http://www.w3.org/1999/xlink" x="0px" y="0px"
	 width="100%" viewBox="0 0 1024 1024" enable-background="new 0 0 1024 1024" xml:space="preserve">
<path fill="#000000" opacity="1.000000" stroke="none" 
	d="
M518.854126,579.053589 
	C488.462769,580.469910 460.771484,572.910889 435.768341,556.828735 
	C398.260468,532.703430 375.897339,498.379028 369.551849,453.995789 
	C363.646210,412.689209 373.948639,375.577484 399.889404,343.174957 
	C423.582764,313.579559 454.632599,296.022705 492.278870,290.672028 
	C562.908997,280.633270 629.011169,322.677216 650.349792,388.968384 
	C669.146790,447.363586 651.667297,510.203583 600.581848,549.399170 
	C580.691528,564.660217 558.372253,573.888428 533.754028,577.792542 
	C529.001282,578.546265 524.145264,578.649597 518.854126,579.053589 
M627.023193,366.449768 
	C602.613953,323.180573 549.765381,296.607239 500.593475,301.948944 
	C460.842896,306.267212 429.159454,324.286926 405.492920,356.121857 
	C371.865936,401.355042 371.391479,463.630676 404.106689,509.880219 
	C428.002075,543.661133 460.913544,562.828979 502.018188,566.410767 
	C535.816406,569.355835 566.822083,560.212891 593.665100,539.181702 
	C626.644958,513.342407 644.115112,479.147675 645.562134,437.240082 
	C646.426575,412.205048 639.768982,388.834991 627.023193,366.449768 
z"/>
<path fill="#000000" opacity="1.000000" stroke="none" 
	d="
M465.931366,448.072540 
	C477.741180,459.859619 489.307037,471.391815 500.850647,482.946228 
	C502.261108,484.357971 503.697235,485.783417 504.865875,487.388580 
	C506.819275,490.071686 506.463043,492.784821 504.140137,495.056946 
	C501.813477,497.332794 499.163086,497.664795 496.530792,495.488403 
	C494.991974,494.216095 493.509521,492.864014 492.096130,491.453278 
	C475.345825,474.734528 458.597565,458.013702 441.884735,441.257538 
	C436.015167,435.372772 436.090454,433.085541 441.990204,427.176788 
	C458.711182,410.430267 475.413055,393.664734 492.149567,376.933807 
	C493.792450,375.291473 495.488739,373.639008 497.399414,372.344177 
	C499.805786,370.713470 502.222015,371.343933 504.173889,373.355316 
	C506.076477,375.315887 506.851013,377.671021 505.323364,380.168610 
	C504.468903,381.565643 503.258942,382.770721 502.094055,383.948456 
	C489.203644,396.981232 476.286896,409.987946 463.390472,423.014801 
	C462.237854,424.179138 461.177612,425.434998 459.887329,426.854218 
	C461.907135,428.407806 463.943024,427.874969 465.811401,427.876923 
	C502.477936,427.915619 539.144470,427.912903 575.811035,427.924072 
	C577.643738,427.924622 579.492920,427.827026 581.305542,428.031525 
	C584.851135,428.431488 587.268005,430.148407 587.296997,434.068390 
	C587.326050,438.002716 584.871887,439.713837 581.372253,440.186646 
	C579.568665,440.430328 577.712158,440.307068 575.879578,440.307159 
	C539.046387,440.308929 502.213165,440.296051 465.379974,440.325226 
	C463.447418,440.326752 461.438843,439.878632 458.575989,441.218414 
	C461.150848,443.612518 463.415771,445.718445 465.931366,448.072540 
z"/>
</svg>