<?xml version="1.0" encoding="utf-8"?>
<!-- Generator: Adobe Illustrator 27.8.1, SVG Export Plug-In . SVG Version: 6.00 Build 0)  -->
<svg version="1.1" id="Layer_1" xmlns="http://www.w3.org/2000/svg" xmlns:xlink="http://www.w3.org/1999/xlink" x="0px" y="0px"
	 viewBox="0 0 288 288" style="enable-background:new 0 0 288 288;" xml:space="preserve">
<style type="text/css">
	.st0{fill:#FFFFFF;}
</style>
<path class="st0" d="M283,14.8c-7.5,11.8-13.6,24.1-20.2,36c-11.1,19.7-21.9,39.6-33,59.4c-1.7,2.9-1.9,5.1,0.3,8
	c12.4,17.3,18.9,36.8,19.1,57.9c0.3,56.3-41.3,99.5-93.6,104.6c-53.4,5.2-104.6-31.8-112.3-90.1c-3.4-25.6,2.4-49.7,17.4-71.2
	c2.7-3.8,2.7-6.7,0.5-10.7C43.9,78.3,27,47.7,10,17.1C6.3,10.3,8.2,6.9,15.7,6.9c33.5,0,67,0,100.5-0.1c3.8,0,6.1,1.2,8.2,4.3
	c6.4,9.3,13.2,18.4,19.8,27.6c0.9,1.3,1.6,3,3.7,3.6c2.5-2.1,3.7-5.3,5.4-8.1c4.8-7.6,9.4-15.3,14-23.1c1.8-3,4-4.3,7.7-4.3
	c33.8,0.1,67.7,0.1,101.5,0.1c2.2,0,4.4,0,6.3,2.1C283,10.9,283,12.7,283,14.8 M62.6,214.1c17.6,39.6,59.5,60.4,99.9,52.7
	c46.5-8.9,78.2-52.1,73.4-98.4c-5.3-51-51.8-87.8-102.7-80.8C74.1,95.9,39.1,158.1,62.6,214.1 M163.4,42.1
	c-6.2,10.3-12.4,20.7-18.8,31.3c26,4.5,30.9-1,74.3,30.1c15.6-28,31.1-56,46.9-84.4c-1.7-0.3-2.3-0.5-2.9-0.5
	c-27.2,0-54.3,0-81.5-0.1c-3,0-4.5,1.6-5.9,3.8C171.7,28.7,167.7,35.1,163.4,42.1 M117,22.6c-1.7-3.5-4.6-4.2-8.2-4.2
	c-26,0.1-51.9,0-77.9,0.1c-1.5,0-3.3-0.6-4.7,1.1c0.3,0.7,0.5,1.5,0.9,2.2c14.5,26,29,52.1,43.3,78.1c2.1,3.8,4,2.9,6.5,0.6
	c13.5-12.2,29.2-20.2,47.1-23.8c2.5-0.5,4.6-1.4,6-3.9c2.7-4.8,5.5-9.5,8.5-14.1c1.6-2.5,1.4-4.5-0.3-6.8
	C131.2,42.4,124.4,32.8,117,22.6z"/>
<path class="st0" d="M86.5,168.5c-4.9-8.6-1.4-15.9,8.1-17.3c7.6-1.1,15.1-2.3,22.7-3.3c4-0.5,6.6-2.1,8.3-6
	c3.1-7.2,6.8-14.1,10.3-21.1c2-4.1,5.4-6.6,9.8-6.6c4.3-0.1,7.6,2.2,9.6,6.1c3.8,7.6,7.7,15.1,11.3,22.8c1.3,2.7,3.1,4.1,6,4.5
	c7.6,1.1,15.1,2.3,22.7,3.3c5,0.7,9.4,2.2,11.3,7.5c1.9,5.3-0.5,9-4,12.4c-5.6,5.5-11.1,11-16.8,16.4c-2.2,2.1-3.3,4-2.6,7.4
	c1.6,7.5,2.8,15,3.9,22.6c0.6,4.1,0.9,8.3-2.3,11.8c-3.3,3.5-8.3,4.3-13.3,1.7c-7.1-3.7-14.2-7.3-21.1-11.2
	c-3.2-1.8-5.9-2.1-9.2-0.1c-6.8,3.9-13.8,7.4-20.7,11.1c-4.3,2.3-8.7,2.8-12.6-0.4c-3.9-3.1-4.6-7.4-3.6-12.2
	c1.6-8.1,2.8-16.4,4.3-24.5c0.5-2.6-1-4-2.5-5.6C99.6,181.4,93.1,175.1,86.5,168.5 M163.5,212.2c3.4,1.5,6.3,4.1,10.5,4.4
	c-0.5-8-2.5-15.4-3.9-22.9c-1-5.4,0.2-9.5,4.4-13.3c5.7-5.2,10.8-11.1,16.5-17c-8.2-1.3-16-2.9-23.9-3.7c-4.9-0.5-8-2.4-10-6.8
	c-2.6-5.8-5.5-11.4-8.4-17c-0.9-1.7-1.1-3.9-3.8-4.7c-3.7,7.4-7.4,14.8-10.9,22.3c-1.8,4-4.6,5.6-8.8,6.1
	c-8.3,1.1-16.5,2.6-24.1,3.8c5.2,5.6,9.8,11.5,15.3,16.5c4.8,4.3,6.3,8.8,4.7,15c-1.9,7.2-2.9,14.5-3.7,22.7c4.2-2.2,7.7-4,11.2-5.8
	C149.3,201.5,141.5,201,163.5,212.2z"/>
</svg>
