<svg xmlns="http://www.w3.org/2000/svg" xmlns:xlink="http://www.w3.org/1999/xlink" viewBox="0 0 20 25" version="1.1" x="0px" y="0px"><title>team</title><g stroke="none" stroke-width="1" fill="none" fill-rule="evenodd"><g transform="translate(-660.000000, -411.000000)" fill="#000000" fill-rule="nonzero"><path d="M665,416 C667.209139,416 669,417.790861 669,420 C669,421.437196 668.242038,422.69736 667.104049,423.402557 C668.737395,424.055181 669.90757,425.452217 669.994773,427.131478 L670,427.333333 L670,430 C670,430.552285 669.552285,431 669,431 C668.487164,431 668.064493,430.61396 668.006728,430.116621 L668,430 L668,427.333333 C668,426.089106 666.693072,425 665,425 C663.372046,425 662.101104,426.00694 662.005748,427.19051 L662,427.333333 L662,430 C662,430.552285 661.552285,431 661,431 C660.487164,431 660.064493,430.61396 660.006728,430.116621 L660,430 L660,427.333333 C660,425.564887 661.197224,424.081701 662.8951,423.400615 C661.757521,422.696626 661,421.436777 661,420 C661,417.790861 662.790861,416 665,416 Z M675,411 C677.209139,411 679,412.790861 679,415 C679,416.437196 678.242038,417.69736 677.104049,418.402557 C678.737395,419.055181 679.90757,420.452217 679.994773,422.131478 L680,422.333333 L680,425 C680,425.552285 679.552285,426 679,426 C678.487164,426 678.064493,425.61396 678.006728,425.116621 L678,425 L678,422.333333 C678,421.089106 676.693072,420 675,420 C673.372046,420 672.101104,421.00694 672.005748,422.19051 L672,422.333333 L672,425 C672,425.552285 671.552285,426 671,426 C670.487164,426 670.064493,425.61396 670.006728,425.116621 L670,425 L670,422.333333 C670,420.564887 671.197224,419.081701 672.8951,418.400615 C671.757521,417.696626 671,416.436777 671,415 C671,412.790861 672.790861,411 675,411 Z M665,418 C663.895431,418 663,418.895431 663,420 C663,421.104569 663.895431,422 665,422 C666.104569,422 667,421.104569 667,420 C667,418.895431 666.104569,418 665,418 Z M675,413 C673.895431,413 673,413.895431 673,415 C673,416.104569 673.895431,417 675,417 C676.104569,417 677,416.104569 677,415 C677,413.895431 676.104569,413 675,413 Z"/></g></g><text x="0" y="35" fill="#000000" font-size="5px" font-weight="bold" font-family="'Helvetica Neue', Helvetica, Arial-Unicode, Arial, Sans-serif">Created by Danny Amacher</text><text x="0" y="40" fill="#000000" font-size="5px" font-weight="bold" font-family="'Helvetica Neue', Helvetica, Arial-Unicode, Arial, Sans-serif">from the Noun Project</text></svg>