<svg xmlns="http://www.w3.org/2000/svg" version="1.1" viewBox="0 0 35 43.75" x="0px" y="0px"><title>back-button</title><path d="M17.5 1.957c-8.574 0-15.541 6.968-15.541 15.543 0 8.574 6.967 15.543 15.541 15.543s15.541-6.968 15.541-15.543-6.967-15.543-15.541-15.543zM17.5 3.154c7.905 0 14.346 6.44 14.346 14.346s-6.441 14.346-14.346 14.346c-7.905 0-14.346-6.44-14.346-14.346s6.441-14.346 14.346-14.346zM16.123 10.809c-0.155 0-0.304 0.056-0.422 0.174l-6.094 6.094c-0.113 0.113-0.176 0.264-0.176 0.422s0.062 0.31 0.176 0.424l6.096 6.096c0.238 0.235 0.605 0.237 0.842 0 0.238-0.238 0.238-0.608 0-0.846l-5.072-5.072 13.426-0.002c0.336 0 0.598-0.262 0.598-0.598s-0.262-0.598-0.598-0.598h-13.426l5.074-5.072c0.238-0.238 0.238-0.608 0-0.846-0.118-0.118-0.271-0.176-0.424-0.176z"/><text x="0" y="50" fill="#000000" font-size="5px" font-weight="bold" font-family="'Helvetica Neue', Helvetica, Arial-Unicode, Arial, Sans-serif">Created by shuai tawf</text><text x="0" y="55" fill="#000000" font-size="5px" font-weight="bold" font-family="'Helvetica Neue', Helvetica, Arial-Unicode, Arial, Sans-serif">from the Noun Project</text></svg>