<?xml version="1.0" encoding="utf-8"?>
<!-- Generator: Adobe Illustrator 27.8.1, SVG Export Plug-In . SVG Version: 6.00 Build 0)  -->
<svg version="1.1" id="Layer_1" xmlns="http://www.w3.org/2000/svg" xmlns:xlink="http://www.w3.org/1999/xlink" x="0px" y="0px"
	 viewBox="0 0 20 23.8" style="enable-background:new 0 0 20 23.8;" xml:space="preserve">
<style type="text/css">
	.st0{fill:#FFFFFF;}
</style>
<g>
	<g>
		<path class="st0" d="M11,9h2c0.6,0,1,0.4,1,1c0,0.6-0.4,1-1,1h-3c-0.3,0-0.5-0.1-0.7-0.3C9.1,10.5,9,10.3,9,10V6c0-0.5,0.4-1,1-1
			c0.6,0,1,0.5,1,1V9z M2.1,5.8c1-2.6,3.2-4.7,6.1-5.5c4.8-1.3,9.7,1.6,11,6.4s-1.6,9.7-6.4,11s-9.7-1.6-11-6.4l1.9-0.5
			c1,3.7,4.8,6,8.6,4.9s6-4.8,4.9-8.6s-4.8-6-8.6-4.9C6.3,2.9,4.6,4.6,3.9,6.8l2.3,1.3L1.3,9.4L0,4.6L2.1,5.8z"/>
	</g>
</g>
</svg>
