<?xml version="1.0" encoding="utf-8"?>
<!-- Generator: Adobe Illustrator 27.8.1, SVG Export Plug-In . SVG Version: 6.00 Build 0)  -->
<svg version="1.1" id="Layer_1" xmlns="http://www.w3.org/2000/svg" xmlns:xlink="http://www.w3.org/1999/xlink" x="0px" y="0px"
	 viewBox="0 0 20 25" style="enable-background:new 0 0 20 25;" xml:space="preserve">
<style type="text/css">
	.st0{fill:#FFFFFF;}
</style>
<g>
	<g transform="translate(-660.000000, -411.000000)">
		<path class="st0" d="M665,416c2.2,0,4,1.8,4,4c0,1.4-0.8,2.7-1.9,3.4c1.6,0.7,2.8,2,2.9,3.7l0,0.2v2.7c0,0.6-0.4,1-1,1
			c-0.5,0-0.9-0.4-1-0.9l0-0.1v-2.7c0-1.2-1.3-2.3-3-2.3c-1.6,0-2.9,1-3,2.2l0,0.1v2.7c0,0.6-0.4,1-1,1c-0.5,0-0.9-0.4-1-0.9l0-0.1
			v-2.7c0-1.8,1.2-3.3,2.9-3.9c-1.1-0.7-1.9-2-1.9-3.4C661,417.8,662.8,416,665,416z M675,411c2.2,0,4,1.8,4,4
			c0,1.4-0.8,2.7-1.9,3.4c1.6,0.7,2.8,2,2.9,3.7l0,0.2v2.7c0,0.6-0.4,1-1,1c-0.5,0-0.9-0.4-1-0.9l0-0.1v-2.7c0-1.2-1.3-2.3-3-2.3
			c-1.6,0-2.9,1-3,2.2l0,0.1v2.7c0,0.6-0.4,1-1,1c-0.5,0-0.9-0.4-1-0.9l0-0.1v-2.7c0-1.8,1.2-3.3,2.9-3.9c-1.1-0.7-1.9-2-1.9-3.4
			C671,412.8,672.8,411,675,411z M665,418c-1.1,0-2,0.9-2,2s0.9,2,2,2s2-0.9,2-2S666.1,418,665,418z M675,413c-1.1,0-2,0.9-2,2
			s0.9,2,2,2s2-0.9,2-2S676.1,413,675,413z"/>
	</g>
</g>
</svg>
