<?xml version="1.0" encoding="utf-8"?>
<!-- Generator: Adobe Illustrator 27.8.1, SVG Export Plug-In . SVG Version: 6.00 Build 0)  -->
<svg version="1.1" id="Layer_1" xmlns="http://www.w3.org/2000/svg" xmlns:xlink="http://www.w3.org/1999/xlink" x="0px" y="0px"
	 viewBox="0 0 500 288" style="enable-background:new 0 0 500 288;" xml:space="preserve">
<style type="text/css">
	.st0{clip-path:url(#SVGID_00000064320937240728271540000012252109475461051301_);}
	.st1{fill-rule:evenodd;clip-rule:evenodd;fill:#FFBF00;}
</style>
<g>
	<defs>
		<rect id="SVGID_1_" x="118.7" y="38.5" width="262.7" height="185.7"/>
	</defs>
	<clipPath id="SVGID_00000003078607379974254710000000686565218606035120_">
		<use xlink:href="#SVGID_1_"  style="overflow:visible;"/>
	</clipPath>
	<g style="clip-path:url(#SVGID_00000003078607379974254710000000686565218606035120_);">
		<path class="st1" d="M302.3,147.3c7.5-10.3,11.3-20.4,8.4-22.6c-0.4-0.3-0.8-0.5-1.2-0.7c-0.4-0.2-0.9-0.3-1.4-0.3
			c-0.5,0-1,0-1.4,0.2c-0.5,0.1-0.9,0.3-1.3,0.6c-0.1,0-0.1,0.1-0.1,0.2c0,0.1,0.1,0.1,0.2,0.1c0.9-0.3,1.6-0.3,2.1,0
			c2.3,1.6-1.5,10.7-8.4,20.2c-6.9,9.5-14.4,15.9-16.6,14.2c-0.5-0.3-0.7-1-0.6-2c0-0.1,0-0.1-0.1-0.1c-0.1,0-0.1,0-0.1,0.1
			c-0.1,0.5-0.2,0.9-0.2,1.4s0.1,0.9,0.3,1.4c0.2,0.4,0.4,0.9,0.7,1.2c0.3,0.4,0.7,0.7,1.1,1C286.3,164.3,294.8,157.6,302.3,147.3z
			 M373.7,128.6c13.3,9.7,8.2,37.5-10.4,63c-18.6,25.5-43.5,38.9-56.8,29.2l-43.3-31.5c-7-5.1-1.5-24.9,12.2-46.6
			c0.1-0.1,0.1-0.2-0.1-0.3l-25.1-17.6c-0.1-0.1-0.2-0.1-0.3,0l-25.1,17.6c-0.1,0.1-0.2,0.2-0.1,0.3c13.7,21.8,19.2,41.6,12.2,46.6
			l-43.3,31.5c-13.3,9.7-38.3-3.7-56.8-29.2c-18.6-25.5-23.7-53.3-10.4-63l43.3-31.5c7-5.1,24.2,6.3,40.8,26.1
			c0.1,0.1,0.2,0.1,0.3,0l18.7-13.7c-8.3-7.6-15.9-18.3-17.4-30.3c-1.4-11.6,3.1-24.6,15.6-33.5c3.2-2.3,6.8-4.1,10.6-5.4
			c3.8-1.2,7.7-1.9,11.7-1.9c4,0,7.9,0.6,11.7,1.9c3.8,1.2,7.3,3,10.6,5.4c12.5,8.9,17,21.9,15.6,33.5c-1.4,11.8-8.9,22.5-17.2,30.1
			c-0.1,0.1-0.1,0.1-0.1,0.2c0,0.1,0,0.1,0.1,0.2l18.5,13.5c0.1,0.1,0.2,0.1,0.3,0c16.6-19.8,33.8-31.2,40.8-26.1L373.7,128.6
			L373.7,128.6z M187.8,213.3c0.2,0,0.3,0,0.4-0.2c0.1-0.2,0-0.3-0.2-0.4c-11.2-4.6-24.7-16.1-36.3-31.9
			c-14.1-19.4-19.5-37.1-18.8-48.3c0-0.1,0-0.2-0.2-0.3c-0.1-0.1-0.2-0.1-0.3,0l-2.2,1.6c-9,6.5-5.8,30,11.8,54.1
			c4.5,6.2,9.5,11.8,15.2,16.9c0.1,0.1,0.3,0.2,0.4,0.2c0.2,0,0.3,0,0.5-0.1l5.8-4.2c0.1-0.1,0.2-0.1,0.4,0
			C174.1,209.5,183,212.3,187.8,213.3z M201.4,201.9c0.2,0,0.3,0,0.4-0.2c0.1-0.2,0-0.3-0.2-0.4c-10.9-4.9-23.8-16.2-34.9-31.5
			c-12.7-17.4-19.8-35.6-19.6-47.8c0-0.1-0.1-0.2-0.2-0.3c-0.1-0.1-0.2,0-0.3,0l-6.3,4.6c-2.8,2-2.4,7.9-0.5,16.1
			c2.5,10.6,7.9,22,17,34.5c4.5,6.2,9.4,11.8,15,17.1c0.1,0.1,0.3,0.2,0.5,0.2c0.2,0,0.3,0,0.5-0.1l6.1-4.4c0.1-0.1,0.2-0.1,0.4,0
			C188.1,197.6,196.3,200.7,201.4,201.9z M217,191.7c0.2,0,0.3,0,0.4-0.2c0.1-0.2,0-0.3-0.2-0.4c-11-4.8-24.3-16.3-35.7-32
			c-12.7-17.5-19.9-35.6-19.8-47.7c0-0.1-0.1-0.2-0.2-0.3c-0.1-0.1-0.2-0.1-0.3,0l-6,4.4c-2.7,2-2.3,7.9-0.4,16.1
			c2.5,10.6,8.6,22.8,17.1,34.4c4.4,6.2,9.4,11.8,14.9,17.1c0.1,0.1,0.3,0.2,0.4,0.2c0.2,0,0.3,0,0.5-0.1l5.8-4.2
			c0.1-0.1,0.2-0.1,0.4,0C203.9,187.8,212.2,190.8,217,191.7L217,191.7z M239.4,117.2c0.1,0,0.1-0.1,0.1-0.2c0-0.1,0-0.1-0.1-0.2
			c-0.9-0.7-4.5-3.1-5.7-4.1c-0.1-0.1-0.2-0.1-0.2,0c-14.1,10.2-29.7,21.4-32.2,23.2c-0.1,0.1-0.2,0.1-0.3,0.1
			c-0.1,0-0.2-0.1-0.2-0.2c-1.2-2.3-1.6-4-1-4.5l5.9-4.3c0.1-0.1,0.1-0.1,0.1-0.2c0-0.1,0-0.2-0.1-0.2
			c-12.5-14.9-25.1-24.3-31.6-23.5c-0.1,0-0.1,0.1-0.1,0.1c0,0.1,0,0.1,0.1,0.2c7.6,1.8,18.1,11.2,24.6,18.4c0.1,0.1,0.1,0.2,0,0.3
			c-0.1,0.1-0.2,0.1-0.3,0c-5.2-4-20.3-15.2-25.1-12.9c-0.2,0.1-0.2,0.2-0.2,0.4c0.6,7.3,4,21,19.2,41.7c15.1,20.7,27,28.2,33.8,31
			c0.2,0.1,0.4,0,0.5-0.1c3.4-4.4-2.3-21.6-4.5-27.7c0-0.1,0-0.2,0.1-0.3c0.1-0.1,0.2,0,0.3,0.1c4.9,8.4,10.5,21.2,9.9,28.9
			c0,0.1,0,0.1,0.1,0.2c0.1,0,0.1,0,0.2-0.1c2.7-6-2.3-20.7-12.6-37.2c0-0.1-0.1-0.1-0.2-0.1c-0.1,0-0.2,0-0.2,0l-5.9,4.2
			c-1,0.7-4.6-2.6-8.3-7.4c-0.1-0.1-0.1-0.2-0.1-0.3c0-0.1,0.1-0.2,0.2-0.3L239.4,117.2L239.4,117.2z M273.7,182.2
			c-3.4-4.4,2.3-21.6,4.5-27.7c0-0.1,0-0.2-0.1-0.3c-0.1-0.1-0.2,0-0.3,0.1c-4.9,8.4-10.5,21.2-9.9,28.9c0,0.1,0,0.1-0.1,0.2
			c-0.1,0-0.1,0-0.2-0.1c-2.8-6,2.3-20.7,12.6-37.2c0-0.1,0.1-0.1,0.2-0.1c0.1,0,0.2,0,0.2,0l5.9,4.2c1,0.7,4.6-2.6,8.3-7.4
			c0.1-0.1,0.1-0.2,0.1-0.3c0-0.1-0.1-0.2-0.2-0.2l-51.6-37.4c-3.4-2.4-6.5-5.1-9.4-8.1c-4.1-4.2-8.3-9.7-9.4-16.3
			c-1.6-9.5,1.2-19,9.8-25.5c4.3-3.2,10.5-4.8,15.9-4.8c2.8,0.1,5.6,0.5,8.3,1.3c2.7,0.8,5.2,2,7.6,3.5c12.7,8.3,14.4,25.2,4.4,38.4
			c-2.4,3.2-6.8,6.9-9.4,9c-0.1,0.1-0.2,0.1-0.2,0l-6.3-4.6c-0.1,0-0.1-0.1-0.1-0.2c0-0.1,0-0.1,0.1-0.2
			c1.8-1.3,13.4-10.6,13.4-21.3c0-3.7-1-7-3-10.1c-0.8-1.2-1.8-2.3-2.9-3.2c-1.1-1-2.3-1.8-3.6-2.4s-2.6-1.2-4-1.5
			c-1.4-0.3-2.8-0.5-4.3-0.5c-1.4,0-2.9,0.2-4.3,0.5c-1.4,0.3-2.7,0.9-4,1.5s-2.5,1.5-3.6,2.4c-1.1,1-2,2-2.9,3.2
			c-2.1,3-3.1,6.4-3,10.1c0,11.5,13.7,21.4,13.7,21.4l4.1,3.2c14.7,10.7,45.1,32.5,48.7,35.2c0.1,0.1,0.2,0.1,0.3,0.1
			c0.1,0,0.2-0.1,0.2-0.2c1.2-2.3,1.6-4,1-4.5l-5.9-4.3c-0.1-0.1-0.1-0.1-0.1-0.2c0-0.1,0-0.2,0.1-0.2
			c12.5-14.9,25.1-24.3,31.6-23.5c0.1,0,0.1,0.1,0.1,0.1c0,0.1,0,0.1-0.1,0.2c-7.6,1.8-18.1,11.2-24.6,18.4c-0.1,0.1-0.1,0.2,0,0.3
			s0.2,0.1,0.3,0c5.2-4,20.3-15.2,25.1-12.9c0.2,0.1,0.3,0.2,0.2,0.4c-0.6,7.3-4,21-19.2,41.7c-15.1,20.7-27,28.2-33.8,31
			C274,182.4,273.8,182.4,273.7,182.2z M250.1,94.5c1.3-1,12.9-9.7,12.9-18.4c0-2.3-0.5-4.5-1.7-6.5c-0.3-0.5-0.6-0.9-1-1.4
			c-0.4-0.4-0.7-0.9-1.1-1.2c-0.4-0.4-0.8-0.8-1.3-1.1c-0.4-0.3-0.9-0.6-1.4-0.9c-0.5-0.3-1-0.5-1.5-0.7c-0.5-0.2-1.1-0.4-1.6-0.5
			c-0.5-0.1-1.1-0.2-1.7-0.3c-0.6-0.1-1.1-0.1-1.7-0.1s-1.1,0-1.7,0.1c-0.6,0.1-1.1,0.2-1.7,0.3c-0.5,0.1-1.1,0.3-1.6,0.5
			c-0.5,0.2-1,0.5-1.5,0.7c-0.5,0.3-1,0.6-1.4,0.9c-0.5,0.3-0.9,0.7-1.3,1.1c-0.4,0.4-0.8,0.8-1.1,1.2c-0.3,0.4-0.7,0.9-1,1.4
			c-1.2,2-1.8,4.2-1.7,6.5c0,8.8,11.5,17.5,12.8,18.4C250,94.6,250.1,94.6,250.1,94.5z M282.9,191.1c11-4.8,24.3-16.3,35.7-32
			c12.7-17.5,19.9-35.6,19.8-47.7c0-0.1,0.1-0.2,0.2-0.3c0.1-0.1,0.2,0,0.3,0l6,4.4c2.7,2,2.3,7.9,0.4,16.1
			c-2.5,10.5-8.6,22.8-17.1,34.4c-4.5,6.2-9.4,11.8-15,17.1c-0.1,0.1-0.3,0.2-0.4,0.2c-0.2,0-0.3,0-0.5-0.1l-5.8-4.2
			c-0.1-0.1-0.2-0.1-0.4,0c-10,8.8-18.3,11.9-23.1,12.8c-0.2,0-0.3,0-0.4-0.2C282.6,191.3,282.7,191.2,282.9,191.1L282.9,191.1z
			 M298.6,201.9c-0.2,0-0.3,0-0.4-0.2c-0.1-0.2,0-0.3,0.2-0.4c10.9-4.9,23.8-16.2,34.9-31.5c12.7-17.4,19.8-35.6,19.6-47.8
			c0-0.1,0.1-0.2,0.2-0.3c0.1-0.1,0.2-0.1,0.3,0l6.3,4.6c2.8,2,2.4,7.9,0.5,16.1c-2.5,10.6-7.9,22-17,34.5
			c-4.4,6.2-9.4,11.8-15,17.1c-0.1,0.1-0.3,0.2-0.4,0.2c-0.2,0-0.3,0-0.5-0.1l-6.1-4.4c-0.1-0.1-0.2-0.1-0.4,0
			C312,197.6,303.7,200.7,298.6,201.9L298.6,201.9z M358.1,187.9c-4.5,6.2-9.5,11.8-15.2,16.9c-0.1,0.1-0.3,0.2-0.4,0.2
			c-0.2,0-0.3,0-0.5-0.1l-5.8-4.2c-0.1-0.1-0.2-0.1-0.4,0c-9.9,8.9-18.8,11.8-23.5,12.7c-0.2,0-0.3,0-0.4-0.2
			c-0.1-0.2,0-0.3,0.2-0.4c11.2-4.6,24.7-16.1,36.3-31.9c14.1-19.4,19.5-37.1,18.8-48.3c0-0.1,0-0.2,0.2-0.3c0.1-0.1,0.2-0.1,0.3,0
			l2.2,1.6C378.9,140.3,375.7,163.7,358.1,187.9z M192.5,124.7c0.5-0.3,1.2-0.3,2.1,0c0.1,0,0.1,0,0.2-0.1s0-0.1,0-0.2
			c-0.4-0.3-0.8-0.5-1.3-0.6c-0.5-0.1-0.9-0.2-1.4-0.2c-0.5,0-0.9,0.1-1.4,0.3c-0.5,0.2-0.9,0.4-1.2,0.7c-2.9,2.1,0.9,12.2,8.4,22.6
			c7.5,10.3,16,17,18.9,14.9c0.4-0.3,0.8-0.6,1.1-1c0.3-0.4,0.5-0.8,0.7-1.2c0.2-0.4,0.3-0.9,0.3-1.4s0-1-0.2-1.4
			c0-0.1-0.1-0.1-0.1-0.1c-0.1,0-0.1,0.1-0.1,0.1c0,0.9-0.2,1.6-0.6,2c-2.3,1.7-9.7-4.7-16.6-14.2
			C194,135.4,190.2,126.4,192.5,124.7z"/>
	</g>
</g>
</svg>
