<svg xmlns="http://www.w3.org/2000/svg" xmlns:xlink="http://www.w3.org/1999/xlink" width="500" zoomAndPan="magnify" viewBox="0 0 375 374.999991" height="500" preserveAspectRatio="xMidYMid meet" version="1.0"><defs><g/><clipPath id="805a40ef41"><path d="M 89 51.753906 L 286 51.753906 L 286 191 L 89 191 Z M 89 51.753906 " clip-rule="nonzero"/></clipPath></defs><g clip-path="url(#805a40ef41)"><path fill="#cd9322" d="M 226.761719 133.296875 C 232.414062 125.535156 235.238281 117.964844 233.0625 116.378906 C 232.78125 116.152344 232.472656 115.976562 232.132812 115.847656 C 231.796875 115.722656 231.445312 115.648438 231.085938 115.636719 C 230.722656 115.621094 230.371094 115.664062 230.023438 115.765625 C 229.675781 115.863281 229.355469 116.015625 229.058594 116.222656 C 229.007812 116.25 228.996094 116.289062 229.019531 116.339844 C 229.046875 116.390625 229.082031 116.40625 229.136719 116.386719 C 229.796875 116.148438 230.328125 116.140625 230.683594 116.398438 C 232.382812 117.632812 229.546875 124.414062 224.355469 131.542969 C 219.160156 138.671875 213.570312 143.449219 211.871094 142.214844 C 211.515625 141.957031 211.363281 141.445312 211.386719 140.746094 C 211.390625 140.6875 211.363281 140.65625 211.308594 140.648438 C 211.25 140.640625 211.214844 140.664062 211.203125 140.722656 C 211.101562 141.066406 211.054688 141.421875 211.066406 141.78125 C 211.078125 142.140625 211.148438 142.492188 211.269531 142.832031 C 211.394531 143.167969 211.570312 143.480469 211.796875 143.761719 C 212.019531 144.042969 212.285156 144.285156 212.585938 144.480469 C 214.761719 146.066406 221.109375 141.054688 226.761719 133.296875 Z M 280.253906 119.296875 C 290.25 126.570312 286.390625 147.453125 272.46875 166.554688 C 258.550781 185.65625 239.851562 195.738281 229.855469 188.464844 L 197.351562 164.816406 C 192.113281 161.007812 196.226562 146.175781 206.492188 129.84375 C 206.554688 129.746094 206.539062 129.660156 206.441406 129.589844 L 187.621094 116.359375 C 187.546875 116.308594 187.476562 116.308594 187.402344 116.359375 L 168.585938 129.589844 C 168.488281 129.65625 168.46875 129.742188 168.535156 129.84375 C 178.796875 146.175781 182.910156 161.007812 177.675781 164.8125 L 145.171875 188.460938 C 135.175781 195.738281 116.472656 185.652344 102.554688 166.554688 C 88.640625 147.453125 84.777344 126.570312 94.773438 119.296875 L 127.273438 95.648438 C 132.523438 91.828125 145.453125 100.355469 157.890625 115.214844 C 157.964844 115.304688 158.050781 115.316406 158.144531 115.246094 L 172.195312 104.992188 C 165.964844 99.285156 160.257812 91.242188 159.160156 82.28125 C 158.09375 73.578125 161.476562 63.863281 170.824219 57.171875 C 173.25 55.414062 175.890625 54.070312 178.742188 53.144531 C 181.589844 52.214844 184.515625 51.746094 187.511719 51.738281 C 190.511719 51.746094 193.433594 52.214844 196.285156 53.144531 C 199.132812 54.074219 201.773438 55.417969 204.199219 57.175781 C 213.550781 63.867188 216.929688 73.582031 215.863281 82.285156 C 214.777344 91.164062 209.164062 99.144531 203 104.839844 C 202.957031 104.878906 202.9375 104.929688 202.941406 104.988281 C 202.941406 105.050781 202.96875 105.097656 203.015625 105.132812 L 216.878906 115.25 C 216.976562 115.320312 217.0625 115.308594 217.136719 115.214844 C 229.574219 100.359375 242.5 91.828125 247.753906 95.648438 L 280.257812 119.296875 Z M 140.816406 182.78125 C 140.957031 182.8125 141.050781 182.757812 141.09375 182.621094 C 141.136719 182.484375 141.089844 182.386719 140.957031 182.332031 C 132.582031 178.90625 122.425781 170.28125 113.765625 158.394531 C 103.160156 143.84375 99.15625 130.589844 99.632812 122.15625 C 99.640625 122.054688 99.597656 121.980469 99.511719 121.933594 C 99.421875 121.886719 99.339844 121.890625 99.257812 121.953125 L 97.589844 123.167969 C 90.859375 128.0625 93.234375 145.636719 106.421875 163.738281 C 109.769531 168.375 113.582031 172.597656 117.859375 176.398438 C 117.953125 176.480469 118.0625 176.523438 118.191406 176.527344 C 118.316406 176.535156 118.429688 176.5 118.53125 176.421875 L 122.898438 173.25 C 122.988281 173.179688 123.078125 173.1875 123.164062 173.265625 C 130.59375 179.96875 137.265625 182.101562 140.816406 182.78125 Z M 151.074219 174.234375 C 151.214844 174.265625 151.308594 174.210938 151.351562 174.074219 C 151.394531 173.9375 151.351562 173.839844 151.21875 173.785156 C 143.070312 170.082031 133.371094 161.632812 125.035156 150.195312 C 115.507812 137.117188 110.1875 123.464844 110.363281 114.339844 C 110.363281 114.242188 110.320312 114.171875 110.234375 114.125 C 110.148438 114.082031 110.066406 114.089844 109.988281 114.148438 L 105.253906 117.589844 C 103.175781 119.101562 103.453125 123.550781 104.902344 129.699219 C 106.773438 137.628906 110.839844 146.167969 117.675781 155.546875 C 121.015625 160.164062 124.757812 164.429688 128.902344 168.335938 C 129 168.425781 129.113281 168.472656 129.242188 168.480469 C 129.371094 168.488281 129.488281 168.453125 129.59375 168.375 L 134.167969 165.046875 C 134.261719 164.980469 134.347656 164.988281 134.433594 165.0625 C 141.050781 171.042969 147.261719 173.347656 151.074219 174.234375 Z M 162.746094 166.632812 C 162.886719 166.660156 162.976562 166.605469 163.015625 166.472656 C 163.058594 166.335938 163.015625 166.242188 162.882812 166.1875 C 154.667969 162.617188 144.675781 153.960938 136.078125 142.160156 C 126.523438 129.046875 121.160156 115.453125 121.261719 106.40625 C 121.265625 106.308594 121.222656 106.238281 121.136719 106.195312 C 121.046875 106.148438 120.964844 106.15625 120.886719 106.214844 L 116.375 109.5 C 114.320312 110.992188 114.628906 115.421875 116.09375 121.554688 C 117.992188 129.46875 122.542969 138.636719 128.910156 147.375 C 132.246094 151.992188 135.984375 156.257812 140.121094 160.171875 C 140.214844 160.261719 140.328125 160.308594 140.457031 160.316406 C 140.589844 160.324219 140.707031 160.289062 140.808594 160.210938 L 145.15625 157.050781 C 145.246094 156.984375 145.335938 156.988281 145.421875 157.0625 C 152.910156 163.703125 159.152344 165.96875 162.746094 166.628906 Z M 179.578125 110.773438 C 179.621094 110.746094 179.640625 110.703125 179.640625 110.652344 C 179.640625 110.601562 179.621094 110.558594 179.578125 110.53125 C 178.875 110.039062 176.238281 108.183594 175.304688 107.433594 C 175.246094 107.386719 175.183594 107.382812 175.121094 107.429688 C 164.519531 115.085938 152.878906 123.445312 150.96875 124.816406 C 150.898438 124.867188 150.820312 124.882812 150.734375 124.859375 C 150.648438 124.839844 150.585938 124.789062 150.546875 124.710938 C 149.667969 122.964844 149.328125 121.683594 149.765625 121.367188 L 154.160156 118.160156 C 154.214844 118.121094 154.242188 118.066406 154.25 118.003906 C 154.257812 117.9375 154.242188 117.878906 154.199219 117.828125 C 144.789062 106.660156 135.371094 99.609375 130.46875 100.195312 C 130.40625 100.203125 130.371094 100.238281 130.367188 100.304688 C 130.363281 100.367188 130.394531 100.40625 130.457031 100.421875 C 136.132812 101.769531 144.046875 108.839844 148.925781 114.253906 C 148.992188 114.328125 148.992188 114.398438 148.925781 114.46875 C 148.859375 114.539062 148.789062 114.546875 148.710938 114.484375 C 144.800781 111.457031 133.476562 103.089844 129.863281 104.777344 C 129.734375 104.839844 129.675781 104.945312 129.6875 105.089844 C 130.101562 110.589844 132.714844 120.804688 144.050781 136.359375 C 155.371094 151.898438 164.289062 157.523438 169.40625 159.613281 C 169.550781 159.675781 169.675781 159.644531 169.773438 159.519531 C 172.351562 156.234375 168.039062 143.339844 166.386719 138.769531 C 166.351562 138.675781 166.378906 138.613281 166.46875 138.570312 C 166.554688 138.53125 166.621094 138.550781 166.671875 138.632812 C 170.316406 144.941406 174.558594 154.546875 174.105469 160.324219 C 174.101562 160.386719 174.128906 160.425781 174.191406 160.441406 C 174.253906 160.460938 174.296875 160.441406 174.324219 160.382812 C 176.382812 155.910156 172.582031 144.835938 164.875 132.492188 C 164.839844 132.4375 164.789062 132.402344 164.726562 132.390625 C 164.660156 132.375 164.601562 132.390625 164.550781 132.425781 L 160.101562 135.550781 C 159.359375 136.09375 156.632812 133.636719 153.902344 130 C 153.855469 129.9375 153.835938 129.863281 153.847656 129.785156 C 153.859375 129.703125 153.898438 129.640625 153.964844 129.59375 L 179.578125 110.777344 Z M 205.253906 159.519531 C 202.675781 156.230469 206.988281 143.339844 208.640625 138.765625 C 208.671875 138.675781 208.644531 138.609375 208.558594 138.566406 C 208.46875 138.527344 208.402344 138.546875 208.355469 138.632812 C 204.707031 144.9375 200.464844 154.546875 200.917969 160.320312 C 200.925781 160.382812 200.898438 160.425781 200.835938 160.441406 C 200.773438 160.457031 200.730469 160.4375 200.703125 160.382812 C 198.640625 155.90625 202.441406 144.832031 210.152344 132.488281 C 210.1875 132.433594 210.238281 132.398438 210.300781 132.386719 C 210.363281 132.375 210.421875 132.386719 210.476562 132.421875 L 214.925781 135.550781 C 215.667969 136.089844 218.390625 133.636719 221.121094 130 C 221.167969 129.933594 221.1875 129.863281 221.175781 129.78125 C 221.164062 129.703125 221.125 129.640625 221.058594 129.59375 L 182.363281 101.519531 C 179.828125 99.699219 177.464844 97.675781 175.277344 95.449219 C 172.195312 92.269531 169.082031 88.164062 168.257812 83.207031 C 167.078125 76.113281 169.191406 68.933594 175.617188 64.066406 C 178.808594 61.644531 183.523438 60.460938 187.511719 60.460938 C 189.621094 60.515625 191.683594 60.847656 193.703125 61.460938 C 195.722656 62.070312 197.625 62.9375 199.40625 64.066406 C 208.902344 70.324219 210.234375 82.933594 202.699219 92.863281 C 200.898438 95.234375 197.617188 98.050781 195.675781 99.632812 C 195.613281 99.683594 195.554688 99.683594 195.488281 99.636719 L 190.757812 96.183594 C 190.71875 96.152344 190.695312 96.113281 190.695312 96.0625 C 190.695312 96.011719 190.71875 95.96875 190.757812 95.941406 C 192.070312 94.945312 200.835938 87.988281 200.835938 79.980469 C 200.867188 77.222656 200.105469 74.703125 198.554688 72.425781 C 197.9375 71.535156 197.21875 70.730469 196.40625 70.011719 C 195.589844 69.296875 194.703125 68.6875 193.742188 68.183594 C 192.78125 67.679688 191.773438 67.300781 190.71875 67.039062 C 189.667969 66.78125 188.597656 66.648438 187.511719 66.644531 C 186.425781 66.648438 185.359375 66.78125 184.304688 67.039062 C 183.25 67.300781 182.246094 67.679688 181.285156 68.183594 C 180.324219 68.6875 179.433594 69.296875 178.621094 70.015625 C 177.808594 70.734375 177.09375 71.535156 176.472656 72.425781 C 174.921875 74.707031 174.164062 77.226562 174.191406 79.984375 C 174.191406 88.636719 184.433594 96.066406 184.433594 96.066406 L 187.511719 98.449219 C 198.503906 106.464844 221.3125 122.84375 224.058594 124.816406 C 224.128906 124.867188 224.207031 124.882812 224.292969 124.859375 C 224.378906 124.839844 224.441406 124.789062 224.480469 124.710938 C 225.359375 122.964844 225.699219 121.683594 225.261719 121.367188 L 220.867188 118.160156 C 220.816406 118.121094 220.785156 118.066406 220.777344 118.003906 C 220.769531 117.9375 220.785156 117.878906 220.828125 117.828125 C 230.238281 106.660156 239.65625 99.609375 244.5625 100.195312 C 244.625 100.203125 244.65625 100.238281 244.660156 100.304688 C 244.664062 100.367188 244.632812 100.40625 244.574219 100.421875 C 238.894531 101.769531 230.984375 108.839844 226.101562 114.253906 C 226.039062 114.328125 226.039062 114.398438 226.105469 114.46875 C 226.171875 114.539062 226.242188 114.542969 226.316406 114.484375 C 230.226562 111.457031 241.550781 103.089844 245.164062 104.777344 C 245.296875 104.839844 245.355469 104.945312 245.34375 105.089844 C 244.925781 110.589844 242.3125 120.804688 230.976562 136.359375 C 219.65625 151.898438 210.738281 157.523438 205.625 159.613281 C 205.476562 159.675781 205.355469 159.644531 205.253906 159.519531 Z M 187.601562 93.75 C 188.582031 93.03125 197.242188 86.484375 197.242188 79.914062 C 197.265625 78.160156 196.835938 76.53125 195.949219 75.019531 C 195.730469 74.65625 195.492188 74.308594 195.230469 73.976562 C 194.964844 73.644531 194.683594 73.332031 194.382812 73.039062 C 194.078125 72.742188 193.757812 72.46875 193.417969 72.214844 C 193.082031 71.960938 192.726562 71.730469 192.359375 71.523438 C 191.992188 71.3125 191.609375 71.128906 191.21875 70.972656 C 190.828125 70.8125 190.425781 70.679688 190.019531 70.570312 C 189.609375 70.464844 189.195312 70.382812 188.773438 70.328125 C 188.355469 70.273438 187.933594 70.246094 187.511719 70.246094 C 187.089844 70.246094 186.667969 70.273438 186.246094 70.328125 C 185.828125 70.382812 185.414062 70.464844 185.003906 70.570312 C 184.597656 70.679688 184.195312 70.8125 183.804688 70.972656 C 183.410156 71.128906 183.03125 71.3125 182.664062 71.523438 C 182.296875 71.730469 181.941406 71.960938 181.605469 72.214844 C 181.265625 72.46875 180.945312 72.742188 180.640625 73.039062 C 180.339844 73.332031 180.054688 73.644531 179.792969 73.976562 C 179.53125 74.308594 179.292969 74.65625 179.074219 75.019531 C 178.1875 76.53125 177.757812 78.160156 177.785156 79.914062 C 177.785156 86.492188 186.445312 93.035156 187.421875 93.75 C 187.480469 93.796875 187.542969 93.796875 187.601562 93.75 Z M 212.140625 166.183594 C 220.355469 162.617188 230.347656 153.960938 238.945312 142.160156 C 248.503906 129.046875 253.863281 115.453125 253.761719 106.40625 C 253.761719 106.308594 253.800781 106.234375 253.890625 106.191406 C 253.976562 106.148438 254.058594 106.15625 254.136719 106.214844 L 258.648438 109.5 C 260.703125 110.992188 260.398438 115.421875 258.929688 121.554688 C 257.035156 129.464844 252.480469 138.632812 246.117188 147.371094 C 242.777344 151.988281 239.042969 156.253906 234.902344 160.167969 C 234.808594 160.257812 234.695312 160.304688 234.566406 160.3125 C 234.433594 160.320312 234.316406 160.285156 234.210938 160.207031 L 229.867188 157.046875 C 229.777344 156.980469 229.6875 156.988281 229.601562 157.0625 C 222.113281 163.699219 215.871094 165.964844 212.277344 166.628906 C 212.136719 166.65625 212.046875 166.601562 212.007812 166.464844 C 211.964844 166.332031 212.011719 166.234375 212.140625 166.179688 Z M 223.949219 174.234375 C 223.808594 174.265625 223.714844 174.214844 223.671875 174.074219 C 223.625 173.9375 223.671875 173.839844 223.804688 173.785156 C 231.957031 170.082031 241.652344 161.628906 249.988281 150.191406 C 259.515625 137.113281 264.835938 123.464844 264.664062 114.335938 C 264.660156 114.238281 264.703125 114.167969 264.789062 114.125 C 264.878906 114.078125 264.960938 114.085938 265.039062 114.144531 L 269.769531 117.589844 C 271.847656 119.101562 271.570312 123.550781 270.121094 129.695312 C 268.25 137.625 264.179688 146.164062 257.34375 155.546875 C 254.007812 160.164062 250.265625 164.425781 246.117188 168.335938 C 246.023438 168.425781 245.910156 168.472656 245.78125 168.480469 C 245.652344 168.484375 245.535156 168.453125 245.429688 168.375 L 240.855469 165.046875 C 240.761719 164.984375 240.675781 164.988281 240.589844 165.066406 C 233.972656 171.042969 227.761719 173.347656 223.949219 174.238281 Z M 268.601562 163.738281 C 265.257812 168.378906 261.445312 172.597656 257.167969 176.398438 C 257.070312 176.480469 256.960938 176.523438 256.832031 176.53125 C 256.707031 176.535156 256.59375 176.5 256.488281 176.425781 L 252.125 173.25 C 252.035156 173.183594 251.945312 173.1875 251.859375 173.265625 C 244.429688 179.96875 237.757812 182.105469 234.207031 182.78125 C 234.066406 182.8125 233.976562 182.757812 233.933594 182.621094 C 233.890625 182.484375 233.9375 182.390625 234.066406 182.332031 C 242.445312 178.910156 252.597656 170.28125 261.261719 158.398438 C 271.863281 143.84375 275.867188 130.59375 275.390625 122.15625 C 275.386719 122.054688 275.425781 121.984375 275.511719 121.933594 C 275.601562 121.886719 275.683594 121.894531 275.765625 121.953125 L 277.4375 123.167969 C 284.167969 128.066406 281.789062 145.636719 268.601562 163.738281 Z M 144.339844 116.398438 C 144.695312 116.140625 145.226562 116.148438 145.886719 116.386719 C 145.941406 116.40625 145.980469 116.390625 146.003906 116.339844 C 146.027344 116.289062 146.015625 116.25 145.96875 116.222656 C 145.667969 116.015625 145.347656 115.863281 145 115.765625 C 144.652344 115.664062 144.296875 115.621094 143.9375 115.636719 C 143.578125 115.648438 143.226562 115.722656 142.890625 115.847656 C 142.550781 115.976562 142.242188 116.152344 141.960938 116.378906 C 139.789062 117.964844 142.605469 125.535156 148.257812 133.296875 C 153.914062 141.054688 160.261719 146.0625 162.4375 144.480469 C 162.738281 144.28125 163.003906 144.042969 163.226562 143.761719 C 163.453125 143.480469 163.628906 143.167969 163.753906 142.828125 C 163.878906 142.492188 163.945312 142.140625 163.957031 141.78125 C 163.96875 141.421875 163.921875 141.066406 163.820312 140.722656 C 163.808594 140.664062 163.773438 140.640625 163.714844 140.648438 C 163.660156 140.65625 163.632812 140.6875 163.636719 140.746094 C 163.660156 141.445312 163.503906 141.957031 163.152344 142.210938 C 161.453125 143.449219 155.863281 138.671875 150.671875 131.542969 C 145.476562 124.414062 142.640625 117.632812 144.339844 116.398438 Z M 144.339844 116.398438 " fill-opacity="1" fill-rule="evenodd"/></g><g fill="#000000" fill-opacity="1"><g transform="translate(88.506682, 256.645414)"><g><path d="M 61.421875 -35.851562 L 51.386719 -7.230469 L 38.0625 -35.851562 L 30.414062 -35.851562 L 17.089844 -7.230469 L 7.050781 -35.851562 L 0.777344 -35.851562 L 13.324219 0 L 20.496094 0 L 34.238281 -29.457031 L 47.980469 0 L 55.148438 0 L 67.695312 -35.851562 Z M 61.421875 -35.851562 "/></g></g></g><g fill="#000000" fill-opacity="1"><g transform="translate(163.963255, 256.645414)"><g><path d="M 29.039062 0.597656 C 47.800781 0.597656 53.296875 -8.363281 53.296875 -16.851562 L 53.296875 -19.480469 C 53.296875 -28.441406 47.203125 -36.628906 29.039062 -36.628906 C 10.574219 -36.628906 4.78125 -28.082031 4.78125 -19.238281 L 4.78125 -16.609375 C 4.78125 -7.945312 10.574219 0.597656 29.039062 0.597656 Z M 29.039062 -5.378906 C 16.074219 -5.378906 10.992188 -10.277344 10.992188 -16.609375 L 10.992188 -19.238281 C 10.992188 -25.753906 16.074219 -30.652344 29.039062 -30.652344 C 41.585938 -30.652344 47.082031 -25.273438 47.082031 -18.640625 L 47.082031 -16.011719 C 47.082031 -9.976562 42.363281 -5.378906 29.039062 -5.378906 Z M 29.039062 -5.378906 "/></g></g></g><g fill="#000000" fill-opacity="1"><g transform="translate(229.024762, 256.645414)"><g><path d="M 28.441406 -35.851562 L 7.410156 -35.851562 L 7.410156 0 L 28.441406 0 C 50.609375 0 52.699219 -7.589844 52.699219 -16.011719 L 52.699219 -18.640625 C 52.699219 -27.367188 50.609375 -35.851562 28.441406 -35.851562 Z M 46.484375 -16.011719 C 46.484375 -10.097656 45.710938 -5.976562 28.441406 -5.976562 L 13.503906 -5.976562 L 13.503906 -29.875 L 28.441406 -29.875 C 44.992188 -29.875 46.484375 -25.035156 46.484375 -18.640625 Z M 46.484375 -16.011719 "/></g></g></g><g fill="#000000" fill-opacity="1"><g transform="translate(91.14889, 298.351096)"><g><path d="M 23.109375 -19.296875 L 23.109375 -10.625 L 17.59375 -18.5 L 17.515625 -18.5 L 17.515625 0 L 6.40625 0 L 6.40625 -18.5 L 6.328125 -18.5 L 0.8125 -10.625 L 0.8125 -19.296875 Z M 23.109375 -19.296875 "/></g></g></g><g fill="#000000" fill-opacity="1"><g transform="translate(135.245344, 298.351096)"><g><path d="M 9.96875 -19.296875 L 13.453125 -5.546875 L 12.03125 0 L 4.5625 0 L 0.234375 -19.296875 Z M 21.375 -19.296875 L 25.484375 -5.546875 L 24.125 0 L 16.546875 0 L 11.640625 -19.296875 Z M 28.9375 -19.296875 L 26.265625 -8.578125 L 23.09375 -19.296875 Z M 28.9375 -19.296875 "/></g></g></g><g fill="#000000" fill-opacity="1"><g transform="translate(184.334063, 298.351096)"><g><path d="M 12.4375 -19.296875 L 12.4375 0 L 1.484375 0 L 1.484375 -19.296875 Z M 12.4375 -19.296875 "/></g></g></g><g fill="#000000" fill-opacity="1"><g transform="translate(218.445986, 298.351096)"><g><path d="M 20.03125 -19.296875 L 20.03125 -11.484375 L 10.5 -19.296875 Z M 7.84375 -19.203125 L 8.03125 -19.203125 L 18.421875 -10.703125 C 18.742188 -10.410156 19.035156 -10.125 19.296875 -9.84375 C 19.566406 -9.570312 19.894531 -9.175781 20.28125 -8.65625 C 20.851562 -7.863281 21.140625 -6.921875 21.140625 -5.828125 C 21.140625 -4.867188 20.90625 -3.941406 20.4375 -3.046875 C 19.96875 -2.160156 19.234375 -1.429688 18.234375 -0.859375 C 17.234375 -0.285156 15.992188 0 14.515625 0 L 5.171875 -7.0625 C 3.859375 -8.050781 2.894531 -9.0625 2.28125 -10.09375 C 1.664062 -11.132812 1.359375 -12.242188 1.359375 -13.421875 C 1.359375 -14.585938 1.644531 -15.609375 2.21875 -16.484375 C 2.789062 -17.359375 3.566406 -18.03125 4.546875 -18.5 C 5.535156 -18.96875 6.632812 -19.203125 7.84375 -19.203125 Z M 1.46875 -8.078125 L 11.765625 0 L 1.46875 0 Z M 1.46875 -8.078125 "/></g></g></g><g fill="#000000" fill-opacity="1"><g transform="translate(259.920238, 298.351096)"><g><path d="M 23.109375 -19.296875 L 23.109375 -10.625 L 17.59375 -18.5 L 17.515625 -18.5 L 17.515625 0 L 6.40625 0 L 6.40625 -18.5 L 6.328125 -18.5 L 0.8125 -10.625 L 0.8125 -19.296875 Z M 23.109375 -19.296875 "/></g></g></g></svg>