<?xml version="1.0" encoding="utf-8"?>
<!-- Generator: Adobe Illustrator 27.8.1, SVG Export Plug-In . SVG Version: 6.00 Build 0)  -->
<svg version="1.1" id="Layer_1" xmlns="http://www.w3.org/2000/svg" xmlns:xlink="http://www.w3.org/1999/xlink" x="0px" y="0px"
	 viewBox="0 0 500 500" style="enable-background:new 0 0 500 500;" xml:space="preserve">
<style type="text/css">
	.st0{clip-path:url(#SVGID_00000182508453750347745560000005175383154100341682_);}
	.st1{fill-rule:evenodd;clip-rule:evenodd;fill:#FFBF00;}
	.st2{fill:#FFFFFF;}
</style>
<g>
	<defs>
		<rect id="SVGID_1_" x="118.7" y="69" width="262.7" height="185.7"/>
	</defs>
	<clipPath id="SVGID_00000158731249697775078110000008419450147110003890_">
		<use xlink:href="#SVGID_1_"  style="overflow:visible;"/>
	</clipPath>
	<g style="clip-path:url(#SVGID_00000158731249697775078110000008419450147110003890_);">
		<path class="st1" d="M302.3,177.7c7.5-10.3,11.3-20.4,8.4-22.6c-0.4-0.3-0.8-0.5-1.2-0.7c-0.4-0.2-0.9-0.3-1.4-0.3
			c-0.5,0-1,0-1.4,0.2c-0.5,0.1-0.9,0.3-1.3,0.6c-0.1,0-0.1,0.1-0.1,0.2c0,0.1,0.1,0.1,0.2,0.1c0.9-0.3,1.6-0.3,2.1,0
			c2.3,1.6-1.5,10.7-8.4,20.2c-6.9,9.5-14.4,15.9-16.6,14.2c-0.5-0.3-0.7-1-0.6-2c0-0.1,0-0.1-0.1-0.1c-0.1,0-0.1,0-0.1,0.1
			c-0.1,0.5-0.2,0.9-0.2,1.4s0.1,0.9,0.3,1.4c0.2,0.4,0.4,0.9,0.7,1.2c0.3,0.4,0.7,0.7,1.1,1C286.3,194.8,294.8,188.1,302.3,177.7z
			 M373.7,159.1c13.3,9.7,8.2,37.5-10.4,63c-18.6,25.5-43.5,38.9-56.8,29.2l-43.3-31.5c-7-5.1-1.5-24.9,12.2-46.6
			c0.1-0.1,0.1-0.2-0.1-0.3l-25.1-17.6c-0.1-0.1-0.2-0.1-0.3,0l-25.1,17.6c-0.1,0.1-0.2,0.2-0.1,0.3c13.7,21.8,19.2,41.6,12.2,46.6
			l-43.3,31.5c-13.3,9.7-38.3-3.7-56.8-29.2c-18.6-25.5-23.7-53.3-10.4-63l43.3-31.5c7-5.1,24.2,6.3,40.8,26.1
			c0.1,0.1,0.2,0.1,0.3,0l18.7-13.7c-8.3-7.6-15.9-18.3-17.4-30.3c-1.4-11.6,3.1-24.6,15.6-33.5c3.2-2.3,6.8-4.1,10.6-5.4
			c3.8-1.2,7.7-1.9,11.7-1.9c4,0,7.9,0.6,11.7,1.9c3.8,1.2,7.3,3,10.6,5.4c12.5,8.9,17,21.9,15.6,33.5c-1.4,11.8-8.9,22.5-17.2,30.1
			c-0.1,0.1-0.1,0.1-0.1,0.2c0,0.1,0,0.1,0.1,0.2l18.5,13.5c0.1,0.1,0.2,0.1,0.3,0c16.6-19.8,33.8-31.2,40.8-26.1L373.7,159.1
			L373.7,159.1z M187.8,243.7c0.2,0,0.3,0,0.4-0.2c0.1-0.2,0-0.3-0.2-0.4c-11.2-4.6-24.7-16.1-36.3-31.9
			c-14.1-19.4-19.5-37.1-18.8-48.3c0-0.1,0-0.2-0.2-0.3c-0.1-0.1-0.2-0.1-0.3,0l-2.2,1.6c-9,6.5-5.8,30,11.8,54.1
			c4.5,6.2,9.5,11.8,15.2,16.9c0.1,0.1,0.3,0.2,0.4,0.2c0.2,0,0.3,0,0.5-0.1l5.8-4.2c0.1-0.1,0.2-0.1,0.4,0
			C174.1,240,183,242.8,187.8,243.7z M201.4,232.3c0.2,0,0.3,0,0.4-0.2c0.1-0.2,0-0.3-0.2-0.4c-10.9-4.9-23.8-16.2-34.9-31.5
			c-12.7-17.4-19.8-35.6-19.6-47.8c0-0.1-0.1-0.2-0.2-0.3c-0.1-0.1-0.2,0-0.3,0l-6.3,4.6c-2.8,2-2.4,7.9-0.5,16.1
			c2.5,10.6,7.9,22,17,34.5c4.5,6.2,9.4,11.8,15,17.1c0.1,0.1,0.3,0.2,0.5,0.2c0.2,0,0.3,0,0.5-0.1l6.1-4.4c0.1-0.1,0.2-0.1,0.4,0
			C188.1,228.1,196.3,231.1,201.4,232.3z M217,222.2c0.2,0,0.3,0,0.4-0.2c0.1-0.2,0-0.3-0.2-0.4c-11-4.8-24.3-16.3-35.7-32
			c-12.7-17.5-19.9-35.6-19.8-47.7c0-0.1-0.1-0.2-0.2-0.3c-0.1-0.1-0.2-0.1-0.3,0l-6,4.4c-2.7,2-2.3,7.9-0.4,16.1
			c2.5,10.6,8.6,22.8,17.1,34.4c4.4,6.2,9.4,11.8,14.9,17.1c0.1,0.1,0.3,0.2,0.4,0.2c0.2,0,0.3,0,0.5-0.1l5.8-4.2
			c0.1-0.1,0.2-0.1,0.4,0C203.9,218.3,212.2,221.3,217,222.2L217,222.2z M239.4,147.7c0.1,0,0.1-0.1,0.1-0.2c0-0.1,0-0.1-0.1-0.2
			c-0.9-0.7-4.5-3.1-5.7-4.1c-0.1-0.1-0.2-0.1-0.2,0c-14.1,10.2-29.7,21.4-32.2,23.2c-0.1,0.1-0.2,0.1-0.3,0.1
			c-0.1,0-0.2-0.1-0.2-0.2c-1.2-2.3-1.6-4-1-4.5l5.9-4.3c0.1-0.1,0.1-0.1,0.1-0.2c0-0.1,0-0.2-0.1-0.2
			c-12.5-14.9-25.1-24.3-31.6-23.5c-0.1,0-0.1,0.1-0.1,0.1c0,0.1,0,0.1,0.1,0.2c7.6,1.8,18.1,11.2,24.6,18.4c0.1,0.1,0.1,0.2,0,0.3
			c-0.1,0.1-0.2,0.1-0.3,0c-5.2-4-20.3-15.2-25.1-12.9c-0.2,0.1-0.2,0.2-0.2,0.4c0.6,7.3,4,21,19.2,41.7c15.1,20.7,27,28.2,33.8,31
			c0.2,0.1,0.4,0,0.5-0.1c3.4-4.4-2.3-21.6-4.5-27.7c0-0.1,0-0.2,0.1-0.3c0.1-0.1,0.2,0,0.3,0.1c4.9,8.4,10.5,21.2,9.9,28.9
			c0,0.1,0,0.1,0.1,0.2c0.1,0,0.1,0,0.2-0.1c2.7-6-2.3-20.7-12.6-37.2c0-0.1-0.1-0.1-0.2-0.1c-0.1,0-0.2,0-0.2,0l-5.9,4.2
			c-1,0.7-4.6-2.6-8.3-7.4c-0.1-0.1-0.1-0.2-0.1-0.3c0-0.1,0.1-0.2,0.2-0.3L239.4,147.7L239.4,147.7z M273.7,212.7
			c-3.4-4.4,2.3-21.6,4.5-27.7c0-0.1,0-0.2-0.1-0.3c-0.1-0.1-0.2,0-0.3,0.1c-4.9,8.4-10.5,21.2-9.9,28.9c0,0.1,0,0.1-0.1,0.2
			c-0.1,0-0.1,0-0.2-0.1c-2.8-6,2.3-20.7,12.6-37.2c0-0.1,0.1-0.1,0.2-0.1c0.1,0,0.2,0,0.2,0l5.9,4.2c1,0.7,4.6-2.6,8.3-7.4
			c0.1-0.1,0.1-0.2,0.1-0.3c0-0.1-0.1-0.2-0.2-0.2l-51.6-37.4c-3.4-2.4-6.5-5.1-9.4-8.1c-4.1-4.2-8.3-9.7-9.4-16.3
			c-1.6-9.5,1.2-19,9.8-25.5c4.3-3.2,10.5-4.8,15.9-4.8c2.8,0.1,5.6,0.5,8.3,1.3c2.7,0.8,5.2,2,7.6,3.5c12.7,8.3,14.4,25.2,4.4,38.4
			c-2.4,3.2-6.8,6.9-9.4,9c-0.1,0.1-0.2,0.1-0.2,0l-6.3-4.6c-0.1,0-0.1-0.1-0.1-0.2c0-0.1,0-0.1,0.1-0.2
			c1.8-1.3,13.4-10.6,13.4-21.3c0-3.7-1-7-3-10.1c-0.8-1.2-1.8-2.3-2.9-3.2c-1.1-1-2.3-1.8-3.6-2.4s-2.6-1.2-4-1.5
			c-1.4-0.3-2.8-0.5-4.3-0.5c-1.4,0-2.9,0.2-4.3,0.5c-1.4,0.3-2.7,0.9-4,1.5s-2.5,1.5-3.6,2.4c-1.1,1-2,2-2.9,3.2
			c-2.1,3-3.1,6.4-3,10.1c0,11.5,13.7,21.4,13.7,21.4l4.1,3.2c14.7,10.7,45.1,32.5,48.7,35.2c0.1,0.1,0.2,0.1,0.3,0.1
			c0.1,0,0.2-0.1,0.2-0.2c1.2-2.3,1.6-4,1-4.5l-5.9-4.3c-0.1-0.1-0.1-0.1-0.1-0.2c0-0.1,0-0.2,0.1-0.2
			c12.5-14.9,25.1-24.3,31.6-23.5c0.1,0,0.1,0.1,0.1,0.1c0,0.1,0,0.1-0.1,0.2c-7.6,1.8-18.1,11.2-24.6,18.4c-0.1,0.1-0.1,0.2,0,0.3
			s0.2,0.1,0.3,0c5.2-4,20.3-15.2,25.1-12.9c0.2,0.1,0.3,0.2,0.2,0.4c-0.6,7.3-4,21-19.2,41.7c-15.1,20.7-27,28.2-33.8,31
			C274,212.9,273.8,212.9,273.7,212.7z M250.1,125c1.3-1,12.9-9.7,12.9-18.4c0-2.3-0.5-4.5-1.7-6.5c-0.3-0.5-0.6-0.9-1-1.4
			c-0.4-0.4-0.7-0.9-1.1-1.2c-0.4-0.4-0.8-0.8-1.3-1.1c-0.4-0.3-0.9-0.6-1.4-0.9c-0.5-0.3-1-0.5-1.5-0.7c-0.5-0.2-1.1-0.4-1.6-0.5
			c-0.5-0.1-1.1-0.2-1.7-0.3c-0.6-0.1-1.1-0.1-1.7-0.1s-1.1,0-1.7,0.1c-0.6,0.1-1.1,0.2-1.7,0.3c-0.5,0.1-1.1,0.3-1.6,0.5
			c-0.5,0.2-1,0.5-1.5,0.7c-0.5,0.3-1,0.6-1.4,0.9c-0.5,0.3-0.9,0.7-1.3,1.1c-0.4,0.4-0.8,0.8-1.1,1.2c-0.3,0.4-0.7,0.9-1,1.4
			c-1.2,2-1.8,4.2-1.7,6.5c0,8.8,11.5,17.5,12.8,18.4C250,125.1,250.1,125.1,250.1,125z M282.9,221.6c11-4.8,24.3-16.3,35.7-32
			c12.7-17.5,19.9-35.6,19.8-47.7c0-0.1,0.1-0.2,0.2-0.3c0.1-0.1,0.2,0,0.3,0l6,4.4c2.7,2,2.3,7.9,0.4,16.1
			c-2.5,10.5-8.6,22.8-17.1,34.4c-4.5,6.2-9.4,11.8-15,17.1c-0.1,0.1-0.3,0.2-0.4,0.2c-0.2,0-0.3,0-0.5-0.1l-5.8-4.2
			c-0.1-0.1-0.2-0.1-0.4,0c-10,8.8-18.3,11.9-23.1,12.8c-0.2,0-0.3,0-0.4-0.2C282.6,221.8,282.7,221.6,282.9,221.6L282.9,221.6z
			 M298.6,232.3c-0.2,0-0.3,0-0.4-0.2c-0.1-0.2,0-0.3,0.2-0.4c10.9-4.9,23.8-16.2,34.9-31.5c12.7-17.4,19.8-35.6,19.6-47.8
			c0-0.1,0.1-0.2,0.2-0.3c0.1-0.1,0.2-0.1,0.3,0l6.3,4.6c2.8,2,2.4,7.9,0.5,16.1c-2.5,10.6-7.9,22-17,34.5
			c-4.4,6.2-9.4,11.8-15,17.1c-0.1,0.1-0.3,0.2-0.4,0.2c-0.2,0-0.3,0-0.5-0.1l-6.1-4.4c-0.1-0.1-0.2-0.1-0.4,0
			C312,228.1,303.7,231.1,298.6,232.3L298.6,232.3z M358.1,218.3c-4.5,6.2-9.5,11.8-15.2,16.9c-0.1,0.1-0.3,0.2-0.4,0.2
			c-0.2,0-0.3,0-0.5-0.1l-5.8-4.2c-0.1-0.1-0.2-0.1-0.4,0c-9.9,8.9-18.8,11.8-23.5,12.7c-0.2,0-0.3,0-0.4-0.2s0-0.3,0.2-0.4
			c11.2-4.6,24.7-16.1,36.3-31.9c14.1-19.4,19.5-37.1,18.8-48.3c0-0.1,0-0.2,0.2-0.3c0.1-0.1,0.2-0.1,0.3,0l2.2,1.6
			C378.9,170.8,375.7,194.2,358.1,218.3z M192.5,155.2c0.5-0.3,1.2-0.3,2.1,0c0.1,0,0.1,0,0.2-0.1s0-0.1,0-0.2
			c-0.4-0.3-0.8-0.5-1.3-0.6c-0.5-0.1-0.9-0.2-1.4-0.2c-0.5,0-0.9,0.1-1.4,0.3c-0.5,0.2-0.9,0.4-1.2,0.7c-2.9,2.1,0.9,12.2,8.4,22.6
			c7.5,10.3,16,17,18.9,14.9c0.4-0.3,0.8-0.6,1.1-1c0.3-0.4,0.5-0.8,0.7-1.2c0.2-0.4,0.3-0.9,0.3-1.4s0-1-0.2-1.4
			c0-0.1-0.1-0.1-0.1-0.1c-0.1,0-0.1,0.1-0.1,0.1c0,0.9-0.2,1.6-0.6,2c-2.3,1.7-9.7-4.7-16.6-14.2
			C194,165.9,190.2,156.8,192.5,155.2z"/>
	</g>
</g>
<g>
	<path class="st2" d="M156.6,337.5L135.8,266h14.8l9.3,35.5l3.1,15.6h0.2c1.2-5.9,2.3-11,3.3-15.2l7.8-35.9h14l7.8,35.8l3.3,15.3
		h0.2c1.4-6.3,2.6-11.6,3.5-15.7l9-35.4h14.3L206,337.5h-13.5l-8.7-38.3l-2.5-12.7h-0.2c-0.7,5-1.5,9.2-2.3,12.7l-8.8,38.3H156.6z"
		/>
	<path class="st2" d="M285.8,328.7c-6.3,7-14.6,10.4-25,10.4c-10.4,0-18.8-3.5-25.1-10.4c-6.3-7-9.5-15.9-9.5-26.8
		c0-10.9,3.1-19.8,9.5-26.8c6.3-7,14.6-10.5,25.1-10.5c10.4,0,18.7,3.5,25,10.5c6.3,7,9.4,15.9,9.4,26.8
		C295.1,312.8,292,321.7,285.8,328.7z M246.2,320.1c3.4,4.7,8.3,7.1,14.6,7.1c6.3,0,11.2-2.4,14.5-7c3.3-4.7,5-10.8,5-18.2
		c0-7.5-1.7-13.6-5-18.3c-3.3-4.7-8.2-7.1-14.5-7.1c-6.3,0-11.2,2.4-14.6,7.1c-3.4,4.7-5.1,10.8-5.1,18.3
		C241,309.3,242.8,315.4,246.2,320.1z"/>
	<path class="st2" d="M303,337.5V266H331c9.5,0,17.1,3.4,22.8,10.2c5.7,6.8,8.6,15.6,8.6,26.2c0,12.3-3.8,21.7-11.4,28.1
		c-5.5,4.6-12.6,6.9-21.2,6.9H303z M317.5,325h11.2c6.6,0,11.4-1.9,14.4-5.8c3-3.8,4.5-9.4,4.5-16.8c0-7.3-1.6-13.2-4.8-17.5
		c-3.2-4.4-7.8-6.5-13.8-6.5h-11.6V325z"/>
</g>
<g>
	<path class="st2" d="M142.5,353v-8.8h41.4v8.8h-15.5v42.7H158V353H142.5z"/>
	<path class="st2" d="M201.6,395.7l-15-51.5h10.7l6.7,25.6l2.2,11.2h0.1c0.9-4.3,1.7-7.9,2.4-10.9l5.6-25.8h10.1l5.6,25.8l2.4,11
		h0.1c1-4.6,1.8-8.3,2.5-11.3l6.5-25.5h10.3l-14.7,51.5h-9.7l-6.3-27.6l-1.8-9.1h-0.1c-0.5,3.6-1.1,6.6-1.7,9.1l-6.3,27.6H201.6z"/>
	<path class="st2" d="M256.3,395.7v-51.5h10.4v51.5H256.3z"/>
	<path class="st2" d="M294.6,396.8c-7,0-12.4-1.5-16.2-4.4c-3.8-3-5.9-7.2-6-12.6h10.2c0.3,3.1,1.4,5.3,3.3,6.6c1.8,1.3,4.6,2,8.3,2
		c2.9,0,5.3-0.5,7.2-1.6s2.8-2.7,2.8-5c0-0.8-0.1-1.5-0.3-2.2c-0.2-0.6-0.7-1.2-1.3-1.7c-0.7-0.5-1.2-0.9-1.7-1.2
		c-0.5-0.3-1.4-0.6-2.7-1c-1.3-0.4-2.3-0.6-3-0.8c-0.7-0.2-1.9-0.5-3.7-0.9c-2.2-0.5-4-1-5.4-1.4c-1.4-0.4-3-1-4.7-1.8
		c-1.7-0.8-3-1.7-4-2.7c-1-1-1.8-2.3-2.5-3.9c-0.7-1.6-1-3.4-1-5.5c0-4.9,1.8-8.7,5.4-11.4c3.6-2.7,8.4-4,14.3-4
		c5.9,0,10.5,1.4,14,4.2c3.5,2.8,5.4,6.7,5.8,11.9h-10c-0.3-2.5-1.3-4.4-3.1-5.8c-1.8-1.3-4.1-2-6.8-2c-2.8,0-5.1,0.6-6.8,1.7
		c-1.7,1.1-2.5,2.6-2.5,4.4c0,2,0.8,3.4,2.5,4.3c1.7,0.9,4.6,1.8,8.7,2.7c2.5,0.5,4.5,1,6.1,1.5s3.3,1.1,5.1,1.9
		c1.8,0.8,3.3,1.8,4.3,2.8c1,1,1.9,2.3,2.6,4c0.7,1.7,1,3.6,1,5.7c0,5.1-1.8,9.1-5.5,12C305.4,395.4,300.6,396.8,294.6,396.8z"/>
	<path class="st2" d="M316.1,353v-8.8h41.4v8.8H342v42.7h-10.4V353H316.1z"/>
</g>
</svg>
