<svg xmlns="http://www.w3.org/2000/svg" viewBox="0 0 512 640" fill="none" x="0px" y="0px"><path d="M60 165.988H95.29C105.902 177.846 120.789 185.002 136.677 185.883C152.565 186.765 168.152 181.299 180.01 170.688C181.661 169.208 183.229 167.639 184.71 165.988H452C462.609 165.988 472.783 161.774 480.284 154.272C487.786 146.771 492 136.597 492 125.988C492 115.379 487.786 105.205 480.284 97.7039C472.783 90.2024 462.609 85.9881 452 85.9881H184.71C174.1 74.1323 159.216 66.9759 143.33 66.0926C127.445 65.2094 111.859 70.6716 100 81.2781C98.3495 82.7586 96.7805 84.3276 95.3 85.9781H60C49.3913 85.9781 39.2172 90.1924 31.7157 97.6939C24.2143 105.195 20 115.369 20 125.978C20 136.587 24.2143 146.761 31.7157 154.262C39.2172 161.764 49.3913 165.978 60 165.978V165.988Z" fill="black"/><path d="M452 215.988H300.71C290.098 204.131 275.211 196.974 259.323 196.093C243.435 195.211 227.848 200.677 215.99 211.288C214.339 212.769 212.771 214.338 211.29 215.988H60C49.3913 215.988 39.2172 220.202 31.7157 227.704C24.2143 235.205 20 245.379 20 255.988C20 266.597 24.2143 276.771 31.7157 284.272C39.2172 291.774 49.3913 295.988 60 295.988H211.29C221.902 307.845 236.789 315.002 252.677 315.883C268.565 316.765 284.152 311.299 296.01 300.688C297.661 299.208 299.229 297.639 300.71 295.988H452C462.609 295.988 472.783 291.774 480.284 284.272C487.786 276.771 492 266.597 492 255.988C492 245.379 487.786 235.205 480.284 227.704C472.783 220.202 462.609 215.988 452 215.988Z" fill="black"/><path d="M452 345.988H416.71C406.098 334.131 391.211 326.974 375.323 326.093C359.435 325.211 343.848 330.677 331.99 341.288C330.339 342.769 328.771 344.338 327.29 345.988H60C49.3913 345.988 39.2172 350.202 31.7157 357.704C24.2143 365.205 20 375.379 20 385.988C20 396.597 24.2143 406.771 31.7157 414.272C39.2172 421.774 49.3913 425.988 60 425.988H327.29C337.902 437.845 352.789 445.002 368.677 445.883C384.565 446.765 400.152 441.299 412.01 430.688C413.661 429.208 415.229 427.639 416.71 425.988H452C462.609 425.988 472.783 421.774 480.284 414.272C487.786 406.771 492 396.597 492 385.988C492 375.379 487.786 365.205 480.284 357.704C472.783 350.202 462.609 345.988 452 345.988Z" fill="black"/><text x="0" y="527" fill="#000000" font-size="5px" font-weight="bold" font-family="'Helvetica Neue', Helvetica, Arial-Unicode, Arial, Sans-serif">Created by fauzi setyaji</text><text x="0" y="532" fill="#000000" font-size="5px" font-weight="bold" font-family="'Helvetica Neue', Helvetica, Arial-Unicode, Arial, Sans-serif">from the Noun Project</text></svg>